<svg version="1.1" id="Layer_1" xmlns="http://www.w3.org/2000/svg" xmlns:xlink="http://www.w3.org/1999/xlink" x="0px" y="0px"
	 width="100%" viewBox="0 0 318 376" enable-background="new 0 0 318 376" xml:space="preserve">
<path fill="#F7F7F8" opacity="1.000000" stroke="none" 
	d="
M202.000000,377.000000 
	C134.666672,377.000000 67.833359,377.000000 1.000027,377.000000 
	C1.000018,251.666702 1.000018,126.333405 1.000009,1.000077 
	C106.999947,1.000051 212.999893,1.000051 318.999878,1.000026 
	C318.999939,126.333260 318.999939,251.666519 318.999969,376.999878 
	C280.166656,377.000000 241.333328,377.000000 202.000000,377.000000 
M198.908401,163.120407 
	C178.489975,163.120407 158.071533,163.120407 137.503983,163.120407 
	C137.503983,130.991180 137.403915,99.505623 137.616516,68.022186 
	C137.646896,63.522652 136.310852,62.346741 132.018524,62.427128 
	C113.553864,62.772934 95.083855,62.831257 76.616035,63.017647 
	C75.849434,63.025379 75.085182,63.266918 74.473938,63.372826 
	C74.473938,96.786011 74.473938,129.861389 74.473938,163.360641 
	C95.537605,163.360641 116.296936,163.360641 137.271927,163.360641 
	C137.271927,184.382019 137.271927,204.977982 137.271927,226.077820 
	C116.277496,226.077820 95.379059,226.077820 74.278885,226.077820 
	C74.278885,259.700470 74.278885,292.820587 74.095467,326.492645 
	C74.416344,326.568817 74.737221,326.644989 75.983070,326.821320 
	C96.380501,326.821320 116.777931,326.821320 137.458984,326.821320 
	C137.458984,292.966370 137.458984,259.717316 137.458984,225.926163 
	C158.517731,225.926163 179.290146,225.926163 200.004868,226.871201 
	C200.004868,260.106018 200.004868,293.340820 200.004868,326.830078 
	C220.612534,326.830078 240.574677,326.789459 260.536377,326.866455 
	C264.248962,326.880768 263.835083,324.483490 263.834442,322.134766 
	C263.829987,305.313202 263.837006,288.491608 263.828064,271.670044 
	C263.826172,268.151367 263.750977,264.632751 263.747681,261.114044 
	C263.736908,249.517365 263.743622,237.920685 263.743622,226.068115 
	C242.165619,226.068115 221.042999,226.068115 199.993988,225.124802 
	C199.995972,213.693420 200.051010,202.261734 199.983414,190.830765 
	C199.927704,181.409225 199.726730,171.988556 200.520767,163.098694 
	C221.468002,163.098694 242.415237,163.098694 263.490051,163.098694 
	C263.490051,129.554428 263.490051,96.363441 263.490051,62.838860 
	C242.232468,62.838860 221.318130,62.838860 200.000000,62.838860 
	C200.000000,64.505562 200.000000,66.141777 200.000000,67.778000 
	C200.000000,89.766289 200.028534,111.754623 199.986816,133.742828 
	C199.968521,143.389404 199.806976,153.035690 198.908401,163.120407 
z"/>
<path fill="#000000" opacity="1.000000" stroke="none" 
	d="
M74.278885,325.940735 
	C74.278885,292.820587 74.278885,259.700470 74.278885,226.077820 
	C95.379059,226.077820 116.277496,226.077820 137.271927,226.077820 
	C137.271927,204.977982 137.271927,184.382019 137.271927,163.360641 
	C116.296936,163.360641 95.537605,163.360641 74.473938,163.360641 
	C74.473938,129.861389 74.473938,96.786011 74.473938,63.372826 
	C75.085182,63.266918 75.849434,63.025379 76.616035,63.017647 
	C95.083855,62.831257 113.553864,62.772934 132.018524,62.427128 
	C136.310852,62.346741 137.646896,63.522652 137.616516,68.022186 
	C137.403915,99.505623 137.503983,130.991180 137.503983,163.120407 
	C158.071533,163.120407 178.489975,163.120407 199.276276,162.875824 
	C199.644165,162.631241 199.590118,162.567490 199.590118,162.567490 
	C199.726730,171.988556 199.927704,181.409225 199.983414,190.830765 
	C200.051010,202.261734 199.995972,213.693420 199.993881,225.562103 
	C199.993774,225.999420 200.062576,225.926163 200.062576,225.926163 
	C179.290146,225.926163 158.517731,225.926163 137.458984,225.926163 
	C137.458984,259.717316 137.458984,292.966370 137.458984,326.821320 
	C116.777931,326.821320 96.380501,326.821320 75.472778,326.573578 
	C74.805351,326.071869 74.577492,325.943512 74.278885,325.940735 
z"/>
<path fill="#000000" opacity="1.000000" stroke="none" 
	d="
M199.957077,226.033768 
	C221.042999,226.068115 242.165619,226.068115 263.743622,226.068115 
	C263.743622,237.920685 263.736908,249.517365 263.747681,261.114044 
	C263.750977,264.632751 263.826172,268.151367 263.828064,271.670044 
	C263.837006,288.491608 263.829987,305.313202 263.834442,322.134766 
	C263.835083,324.483490 264.248962,326.880768 260.536377,326.866455 
	C240.574677,326.789459 220.612534,326.830078 200.004868,326.830078 
	C200.004868,293.340820 200.004868,260.106018 200.033722,226.398682 
	C200.062576,225.926163 199.993774,225.999420 199.957077,226.033768 
z"/>
<path fill="#000000" opacity="1.000000" stroke="none" 
	d="
M199.677322,162.656677 
	C199.806976,153.035690 199.968521,143.389404 199.986816,133.742828 
	C200.028534,111.754623 200.000000,89.766289 200.000000,67.778000 
	C200.000000,66.141777 200.000000,64.505562 200.000000,62.838860 
	C221.318130,62.838860 242.232468,62.838860 263.490051,62.838860 
	C263.490051,96.363441 263.490051,129.554428 263.490051,163.098694 
	C242.415237,163.098694 221.468002,163.098694 200.055450,162.833099 
	C199.590118,162.567490 199.644165,162.631241 199.677322,162.656677 
z"/>
<path fill="#3E3E3F" opacity="1.000000" stroke="none" 
	d="
M74.187180,326.216675 
	C74.577492,325.943512 74.805351,326.071869 75.010292,326.523499 
	C74.737221,326.644989 74.416344,326.568817 74.187180,326.216675 
z"/>
</svg>